<svg width="21" height="20" viewBox="0 0 21 20" fill="none" xmlns="http://www.w3.org/2000/svg">
<g clip-path="url(#clip0_1957_911)">
<path d="M2.1665 3.01685C2.1665 2.46456 2.61422 2.01685 3.1665 2.01685H17.8332C18.3855 2.01685 18.8332 2.46456 18.8332 3.01685V3.69751H2.1665V3.01685Z" fill="#C9C8CF"/>
<path fill-rule="evenodd" clip-rule="evenodd" d="M2.5 4.53784C1.39543 4.53784 0.5 5.43327 0.5 6.53784V15.9832C0.5 17.0878 1.39543 17.9832 2.5 17.9832H18.5C19.6046 17.9832 20.5 17.0878 20.5 15.9832V6.53784C20.5 5.43327 19.6046 4.53784 18.5 4.53784H2.5ZM8.97054 14.955L13.979 12.0245C14.0756 11.9689 14.156 11.8884 14.2119 11.7913C14.2678 11.6942 14.2973 11.584 14.2973 11.4717C14.2973 11.3594 14.2678 11.2492 14.2119 11.1521C14.156 11.055 14.0756 10.9745 13.979 10.9189L8.97054 7.98842C8.54471 7.73919 8.00003 8.04081 8.00003 8.54085V14.4017C8.00003 14.9026 8.5455 15.2034 8.97054 14.955Z" fill="#C9C8CF"/>
</g>
<defs>
<clipPath id="clip0_1957_911">
<rect width="20" height="20" fill="white" transform="translate(0.5)"/>
</clipPath>
</defs>
</svg>
