<svg width="21" height="20" viewBox="0 0 21 20" fill="none" xmlns="http://www.w3.org/2000/svg">
<g clip-path="url(#clip0_1957_1052)">
<path d="M3.35716 3.51929H17.6429C17.8098 3.51921 17.9765 3.52988 18.142 3.55124C18.0859 3.15422 17.9506 2.77277 17.7443 2.42988C17.538 2.08699 17.2649 1.78976 16.9416 1.55612C16.6182 1.32249 16.2513 1.15727 15.8629 1.07045C15.4745 0.983623 15.0727 0.976983 14.6817 1.05093L2.93306 3.07287H2.91966C2.1822 3.21503 1.52639 3.63563 1.08618 4.24877C1.74939 3.77325 2.5433 3.51823 3.35716 3.51929Z" fill="#C9C8CF"/>
<path d="M17.6429 4.59924H3.35714C2.59964 4.60008 1.87339 4.90379 1.33775 5.44374C0.802112 5.98368 0.500827 6.71577 0.5 7.47938V16.1198C0.500827 16.8834 0.802112 17.6155 1.33775 18.1554C1.87339 18.6954 2.59964 18.9991 3.35714 18.9999H17.6429C18.4004 18.9991 19.1266 18.6954 19.6622 18.1554C20.1979 17.6155 20.4992 16.8834 20.5 16.1198V7.47938C20.4992 6.71577 20.1979 5.98368 19.6622 5.44374C19.1266 4.90379 18.4004 4.60008 17.6429 4.59924ZM15.5223 13.2396C15.2398 13.2396 14.9636 13.1552 14.7286 12.9969C14.4937 12.8387 14.3106 12.6138 14.2025 12.3507C14.0944 12.0875 14.0661 11.798 14.1212 11.5186C14.1763 11.2393 14.3124 10.9827 14.5122 10.7813C14.712 10.5799 14.9665 10.4427 15.2436 10.3872C15.5207 10.3316 15.808 10.3601 16.069 10.4691C16.3301 10.5781 16.5532 10.7627 16.7101 10.9995C16.8671 11.2363 16.9509 11.5148 16.9509 11.7996C16.9509 12.1815 16.8004 12.5478 16.5325 12.8179C16.2646 13.0879 15.9012 13.2396 15.5223 13.2396Z" fill="#C9C8CF"/>
<path d="M0.522217 10.5171V6.03938C0.522217 5.06419 1.05793 3.42926 2.91731 3.0751C4.49543 2.77673 6.05793 2.77673 6.05793 2.77673C6.05793 2.77673 7.08472 3.49677 6.2365 3.49677C5.38829 3.49677 5.41061 4.59932 6.2365 4.59932C7.0624 4.59932 6.2365 5.65687 6.2365 5.65687L2.91061 9.45954L0.522217 10.5171Z" fill="#C9C8CF"/>
</g>
<defs>
<clipPath id="clip0_1957_1052">
<rect width="20" height="20" fill="white" transform="translate(0.5)"/>
</clipPath>
</defs>
</svg>
