<svg width="25" height="25" viewBox="0 0 25 25" fill="none" xmlns="http://www.w3.org/2000/svg">
<path d="M0.266741 9.73492C0.843748 7.02117 2.37388 4.55118 4.57588 2.78013C6.82772 0.979134 9.6261 -0.00142276 12.51 1.54947e-06C15.9096 1.54947e-06 19.0848 1.30918 21.4587 3.68658C23.7527 5.98699 25.01 9.02427 24.9999 12.2367C24.9999 14.592 24.3081 16.8954 23.0105 18.8613L22.7678 19.1987L24.1071 24.9899L17.7009 23.3968C17.7009 23.3968 17.5725 23.4398 17.4776 23.476C17.3828 23.5123 16.5664 23.8252 15.7003 24.0673C14.9804 24.2681 13.4827 24.5694 12.3091 24.5694C8.98045 24.5694 5.8722 23.2808 3.55747 20.9402C1.26339 18.6181 0 15.5306 0 12.2434C-0.000179291 11.4002 0.0892353 10.5593 0.266741 9.73492Z" fill="white"/>
</svg>
