<svg width="21" height="20" viewBox="0 0 21 20" fill="none" xmlns="http://www.w3.org/2000/svg">
<g clip-path="url(#clip0_2686_3749)">
<path d="M10.5 0.833374C5.21833 0.833374 0.5 4.35504 0.5 9.17254C0.5 10.8809 1.115 12.5584 2.20583 13.86C2.25167 15.385 1.35333 17.5734 0.545 19.1667C2.71333 18.775 5.79583 17.91 7.19333 17.0534C14.89 18.9259 20.5 14.2159 20.5 9.17254C20.5 4.32921 15.7492 0.833374 10.5 0.833374V0.833374ZM10.5 13.3334C10.0292 13.3334 9.64667 12.9509 9.64667 12.4792C9.64667 12.0084 10.0292 11.6259 10.5 11.6259C10.9717 11.6259 11.3533 12.0084 11.3533 12.4792C11.3533 12.9509 10.9717 13.3334 10.5 13.3334ZM11.8383 9.28504C11.2217 9.95087 11.1925 10.3192 11.2 10.7725H9.83083C9.82583 9.76587 9.84417 9.32087 10.8083 8.40421C11.1992 8.03254 11.5083 7.73837 11.465 7.16004C11.4258 6.61004 10.9658 6.32337 10.5342 6.32337C10.05 6.32337 9.48333 6.68337 9.48333 7.69754H8.11167C8.11167 6.05921 9.07417 5.00004 10.5625 5.00004C11.27 5.00004 11.8892 5.23171 12.3042 5.65254C12.6942 6.04671 12.895 6.59004 12.8875 7.22171C12.8767 8.16671 12.3008 8.78671 11.8383 9.28504V9.28504Z" fill="#7366EF"/>
</g>
<defs>
<clipPath id="clip0_2686_3749">
<rect width="20" height="20" fill="white" transform="translate(0.5)"/>
</clipPath>
</defs>
</svg>
