<svg width="21" height="20" viewBox="0 0 21 20" fill="none" xmlns="http://www.w3.org/2000/svg">
<g clip-path="url(#clip0_1957_1005)">
<path fill-rule="evenodd" clip-rule="evenodd" d="M15.0445 8.18112C15.0445 9.01677 14.8799 9.84424 14.5601 10.6163C14.2403 11.3883 13.7716 12.0898 13.1807 12.6807C12.5898 13.2716 11.8883 13.7403 11.1163 14.0601C10.3442 14.3799 9.51677 14.5445 8.68112 14.5445C7.84547 14.5445 7.01799 14.3799 6.24595 14.0601C5.47391 13.7403 4.77241 13.2716 4.18152 12.6807C3.59062 12.0898 3.1219 11.3883 2.80211 10.6163C2.48232 9.84424 2.31772 9.01677 2.31772 8.18112C2.31772 6.49344 2.98815 4.87489 4.18152 3.68152C5.37489 2.48815 6.99344 1.81772 8.68112 1.81772C10.3688 1.81772 11.9873 2.48815 13.1807 3.68152C14.3741 4.87489 15.0445 6.49344 15.0445 8.18112ZM13.7882 14.5736C12.1545 15.8788 10.083 16.5089 7.99921 16.3345C5.91541 16.1601 3.97748 15.1945 2.58342 13.6359C1.18936 12.0773 0.444982 10.0441 0.503172 7.95384C0.561361 5.86357 1.4177 3.87493 2.89631 2.39631C4.37493 0.917698 6.36357 0.0613608 8.45384 0.00317155C10.5441 -0.0550177 12.5773 0.689357 14.1359 2.08342C15.6945 3.47748 16.6601 5.41541 16.8345 7.49921C17.0089 9.583 16.3788 11.6545 15.0736 13.2882L20.2334 18.4462C20.3179 18.5307 20.385 18.631 20.4307 18.7415C20.4765 18.8519 20.5 18.9703 20.5 19.0898C20.5 19.2093 20.4765 19.3277 20.4307 19.4381C20.385 19.5485 20.3179 19.6489 20.2334 19.7334C20.1489 19.8179 20.0485 19.885 19.9381 19.9307C19.8277 19.9765 19.7093 20 19.5898 20C19.4703 20 19.3519 19.9765 19.2415 19.9307C19.131 19.885 19.0307 19.8179 18.9462 19.7334L13.79 14.5736H13.7882Z" fill="#7366EF"/>
</g>
<defs>
<clipPath id="clip0_1957_1005">
<rect width="20" height="20" fill="white" transform="translate(0.5)"/>
</clipPath>
</defs>
</svg>
