<svg width="21" height="20" viewBox="0 0 21 20" fill="none" xmlns="http://www.w3.org/2000/svg">
<g clip-path="url(#clip0_1957_1154)">
<path d="M10.5 0C11.8261 0 13.0979 0.526784 14.0355 1.46447C14.9732 2.40215 15.5 3.67392 15.5 5C15.5 6.32608 14.9732 7.59785 14.0355 8.53553C13.0979 9.47322 11.8261 10 10.5 10C9.17392 10 7.90215 9.47322 6.96447 8.53553C6.02678 7.59785 5.5 6.32608 5.5 5C5.5 3.67392 6.02678 2.40215 6.96447 1.46447C7.90215 0.526784 9.17392 0 10.5 0ZM10.5 12.5C16.025 12.5 20.5 14.7375 20.5 17.5V20H0.5V17.5C0.5 14.7375 4.975 12.5 10.5 12.5Z" fill="#C9C8CF"/>
</g>
<defs>
<clipPath id="clip0_1957_1154">
<rect width="20" height="20" fill="white" transform="translate(0.5)"/>
</clipPath>
</defs>
</svg>
